<?xml version="1.0" encoding="utf-8"?>
<!-- Generator: Adobe Illustrator 28.0.0, SVG Export Plug-In . SVG Version: 6.00 Build 0)  -->
<svg version="1.1" id="Layer_1" xmlns="http://www.w3.org/2000/svg" xmlns:xlink="http://www.w3.org/1999/xlink" x="0px" y="0px"
	 viewBox="0 0 1000 1000" style="enable-background:new 0 0 1000 1000;" xml:space="preserve">
<style type="text/css">
	.st0{fill:#FAFAF9;}
	.st1{fill:#5B2B14;}
	.st2{fill:#D99354;}
</style>
<g>
	<path class="st0" d="M295.82,886.19c-7.84-9.02-14.65-18.29-20.34-28.29c-10-17.57-15.55-36.63-17.95-56.6
		c-4.1-34.12,3.84-65.79,19.98-95.72c3.55-6.59,6.89-13.26,9.03-20.5c1.18-4,0.88-8.03,1.22-12.05c0.14-1.61,0.9-4.23,0.27-4.63
		c-1.43-0.91-3.55-0.73-5.39-0.97c-15.16-1.97-30.32-3.93-45.47-5.9c-2.88-0.37-5.77-0.64-8.52-0.3c0.58,9.48-3.02,17.25-9.07,24.03
		c-1.26,1.41-1.9,2.64-2.07,4.57c-0.98,11.58-5.04,21.58-15.41,28.01c-1.5,0.93-2.34,2.11-3.03,3.67
		c-3.81,8.59-9.68,15.1-18.72,18.43c-2.95,1.09-4.38,4.01-6.34,6.17c-9.02,9.98-19.52,17.42-33.11,19.33
		c-5.23,0.73-10.26-1.22-15.06-3.2c-8.12-3.35-14.64-9-20.53-15.34c-3.24-3.49-6.36-6.6-11.07-8.39
		c-7.45-2.83-11.68-9.35-15.47-16.03c-0.49-0.87-0.71-1.83-1.81-2.37c-9.64-4.71-14.89-12.81-17.47-22.92
		c-0.13-0.5-0.24-1.01-0.3-1.53c-0.53-4.96-2.18-9.17-6.21-12.62c-2.79-2.38-4.41-6.01-5.43-9.64c-0.49-1.74-1.28-2.34-3.13-2.56
		c-6.62-0.8-13.08-2.08-18.68-6.19c-6.57-4.83-9.87-11.32-10.57-19.27c-0.13-1.49-0.41-2.71-1.39-3.95
		c-6.59-8.27-6.93-17.26-2.53-26.55c0.9-1.9,1.18-3.51,0.7-5.55c-2.28-9.68,1.24-17.48,8.31-23.9c3.16-2.87,6.82-5.1,10.77-6.79
		c0.66-0.28,1.66-0.31,0.94-1.62c-4.52-8.2-2.78-16.36,0.7-24.25c5.5-12.47,13.48-23.07,24.75-30.99c3.12-2.19,4.65-5.77,7.27-8.47
		c8.82-9.11,19.85-14.04,31.66-17.66c3.87-1.19,7.84-1.97,11.98-2.63c-0.94-2.6-2.71-4.5-4.23-6.55c-1.54-2.08-3.28-4.03-4.44-6.38
		c-6.95-14.05,5.45-28.76,18.61-28.99c13.75-0.24,23.46,6.4,30.28,17.86c3.67,6.17,6.68,12.68,8.35,19.67
		c0.71,2.97,2.4,3.49,4.97,3.85c10.53,1.46,20.77,4.1,30.12,9.24c6.87,3.78,12.89,8.73,17.27,15.43c0.55,0.84,0.79,2.46,2.63,0.84
		c10.21-8.94,18.08-19.49,22.59-32.35c2.36-6.71,2.65-13.75,1.43-20.64c-1.49-8.46-8.22-13.39-17.17-13.88
		c-11.75-0.64-23.54-0.1-35.26-1.26c-14.63-1.45-29.03-4.12-42.42-10.48c-8.48-4.03-16.22-9.29-22.82-16.08
		c-0.58-0.59-1.07-1.23-1.99-1.4c-4.9-0.92-8.82-3.7-12.22-7.08c-14.07-13.97-17.58-30.39-10.42-48.82
		c7.73-19.93,15.21-39.99,24.81-59.13c13.96-27.85,32.06-52.49,56.95-71.62c9.82-7.55,20.33-14.1,31.6-19.29
		c1.61-0.74,1.59-1.22,1.07-2.62c-1.86-4.97-1.85-10.19-1.64-15.39c0.94-23.06,6.83-44.45,21.27-62.97
		c8.6-11.04,18.88-20.19,30.87-27.37c6.42-3.84,13.3-5.37,20.51-2.44c5.7,2.32,9.25,6.92,11.79,12.33
		c5.42,11.57,8.07,23.95,10.44,36.4c0.12,0.61,0.24,1.21,0.4,1.81c0.05,0.17,0.25,0.3,0.5,0.59c3.52-5.68,6.88-11.43,10.99-16.64
		c9.79-12.43,20.68-23.65,34.9-31.1c11.25-5.9,21.36-4.25,30.34,4.78c12.28,12.35,18.76,27.63,22.88,44.24
		c5.47,22.02,3.08,43.3-5.25,64.13c-0.62,1.54-1.21,3.17-2.19,4.47c-1.56,2.09-0.6,2.98,1.07,4.38
		c10.66,8.91,18.64,20.02,25.86,31.77c8.09,13.17,13.43,27.57,19.23,41.79c5.29,12.97,10.04,26.25,17.7,38.09
		c11.35,17.54,26.44,31.09,44.74,41.19c9.2,5.07,18.85,9.17,28.19,13.93c0.33,0.17,0.71,0.24,1.61,0.52
		c-2.67-5.36-5.13-10.21-7.51-15.1c-11.64-23.85-18.93-49.12-23.94-75.06c-3.95-20.42-4.78-41.11-3.71-61.84
		c0.57-10.99,1.97-21.95,4.82-32.64c1.49-5.59,4.68-9.78,10.68-10.88c3.23-0.59,4.54-1.88,5.23-5.4
		c2.79-14.2,7.44-27.85,13.11-41.18c9.44-22.19,22.5-42.1,37.69-60.7c5.19-6.36,11.87-9.17,20.38-5.36
		c1.44,0.64,1.77-0.07,2.42-0.92c13.06-16.96,28.76-31.09,46.41-43.12c6.29-4.29,12.94-4.27,19.03,0.28
		c1.37,1.03,2.34,1.18,3.81,0.35c20.57-11.65,42.86-18.45,65.91-22.81c19.7-3.73,39.62-4.87,59.66-3.4
		c28.02,2.07,55.24,7.9,81.51,17.78c25.95,9.75,49.04,24.33,70.04,42.38c11.89,10.22,22.6,21.45,31.77,34.15
		c3.5,4.85,5.09,10.16,3.36,16.11c-0.35,1.19-0.62,2.61-1.44,3.4c-2.82,2.72-2.29,4.93-0.25,8.07
		c11.18,17.21,17.48,36.35,19.53,56.58c3.18,31.49-4.06,60.45-23.67,85.86c-4.04,5.23-8.67,9.77-13.9,13.76
		c-8.32,6.35-16.2,6.59-24.97,0.81c-15.62-10.31-32.43-17.8-51.08-20.36c-13.91-1.91-27.46-0.97-39.31,7.88
		c-10.92,8.15-17.11,18.82-18.03,32.6c-0.95,14.22,3.62,27.03,9.42,39.58c7.27,15.73,15.47,31.05,21.03,47.54
		c0.29,0.86,0.39,1.69,1.83,1.45c9.29-1.56,14.98,3.42,18.77,11.04c9.95,20.04,16.66,41.13,19.77,63.32
		c0.14,1.03,0.38,2.04,0.49,3.07c0.58,5.86,0.67,5.58,6.32,7.55c5.24,1.83,8.33,6.1,9.86,11.3c2.41,8.19,3.57,16.63,4.45,25.1
		c1.96,18.77,0.84,37.39-2.83,55.87c-0.19,0.95-0.2,1.59,0.9,1.89c9.65,2.7,12.42,10.36,12.44,18.59
		c0.03,13.17-2.83,25.98-6.28,38.65c-3.21,11.75-7.51,23.08-12.64,34.11c-0.79,1.69-0.5,2.42,0.95,3.42
		c5.79,4.01,7.54,10.01,6.24,16.42c-2.96,14.66-9.98,27.65-17.94,40.15c-5.31,8.35-11.2,16.27-17.74,23.7
		c-0.96,1.09-1.5,1.82-0.28,3.32c5.04,6.2,4.93,13.03,1.41,19.77c-4.11,7.87-9.79,14.72-15.49,21.47
		c-9.92,11.74-21.33,21.87-34.42,30.02c-2.08,1.3-3.21,2.44-3,5.53c0.36,5.41-2.7,9.9-6.64,13.55
		c-10.58,9.82-22.59,17.66-35.01,24.89c-18.13,10.55-37.33,18.65-57.54,24.26c-14.52,4.03-29.23,7.19-44.29,8.43
		c-1.84,0.15-3.02,0.76-3.99,2.37c-11.66,19.32-27.61,34.13-47.36,44.94c-12.38,6.77-25.77,10.32-39.56,12.6
		c-11.67,1.93-23.47,1.43-35.21,1.73c-48.2,1.22-96.4,2.15-144.6,3.2c-28.94,0.63-57.87,1.36-86.81,1.89
		c-7.17,0.13-13.77-1.94-19-7.17c-1.08-1.08-1.64-1.07-2.98-0.35c-2.27,1.22-4.89,1.77-7.48,1.79c-20.93,0.15-41.87,0.03-62.79,0.39
		c-18.01,0.31-29.74-13.97-27.25-31.17c2.24-15.56,8.65-28.97,20.55-39.47c11.87-10.47,26.06-15.22,41.59-16.25
		C274.85,886.92,285.06,886.66,295.82,886.19z M71.38,688.6c-0.97,2.81,0.09,5.36,1.04,7.91c1.88,5.06,4.76,10.31,9.69,11.69
		c4.76,1.33,6.2,4.14,7.78,7.72c0.21,0.47,0.42,0.94,0.69,1.37c3.9,6.09,7.89,12.08,16.55,11.04c1.49,3.38,3.36,6.47,6.64,8.45
		c4.81,5.67,10.39,10.28,17.06,13.74c6.76,3.51,12.88,2.31,19.01-1.23c6.16-3.56,11.72-7.83,15.96-13.64
		c2.71-1.85,4.89-4.09,5.56-7.46c4.37,0.75,7.55-1.32,10.61-4.12c3.88-3.54,5.77-8.13,7.43-12.89c0.41-1.18,0.61-2.12,2.12-2.6
		c7.97-2.52,11.4-8.75,13.09-16.38c0.28-1.25,0.65-2.38-0.26-3.49c1.75-2.89,1.83-5.81,0.2-8.77c6.39-2.76,11.2-9.2,11.13-14.97
		c-2.67,1.07-5.33,2.14-7.98,3.2c-11.84,4.74-24.12,6.3-36.65,4.13c-7.76-1.35-14.66-4.84-19.6-11.39
		c-0.95-1.48-1.75-3.08-2.88-4.41c-1.38-1.62-0.96-4.15-2.91-5.41c0.08-1.17-0.21-1.96-1.23-2.85c-3.51-3.06-6.74-6.3-8.84-10.69
		c-3.03-6.33-2.68-12.76-1.82-19.34c0.81-0.2,0.92-0.83,1.23-1.52c2.06-4.61,4.57-8.95,8.94-11.8c1.77-1.15,0.63-2-0.08-2.96
		c0.05-4.01-0.63-8.11,1.48-11.86c1.66-2.95,3.74-5.6,5.82-8.25c0.63,0.17,1.25,0.12,1.73-0.34c2.6-2.46,5.64-4.31,8.66-6.18
		c0.53-0.33,1.12-0.6,0.69-1.39c9.42-4.01,19.22-6.31,29.48-6.53c6.64,0.97,13.34,0.79,20.01,1.25c0.58,0.04,1.25,0.32,1.59-0.46
		c1.01,0.12,2,0.07,3.04,0.36c5.17,1.42,7.31-0.22,6.85-5.58c-0.63-7.29-3.67-13.77-7.73-19.74c-3.76-5.53-8.52-10.17-13.82-14.24
		c-1.35-2.66-2.59-5.41-5.27-7.07c-5.38-7.1-13.11-10.54-21.15-13.47c-8.32-3.04-17.06-3.89-25.78-4.66
		c-1.59-0.14-1.9-0.86-2.13-1.99c-1.81-9.19-5.16-17.75-9.64-25.99c-2.85-5.25-6.82-9.2-12.15-11.09
		c-6.65-2.36-9.07-1.72-13.61,3.03c-2.03,2.13-2.55,4.63-0.58,7.22c1.92,2.52,3.94,4.99,5.72,7.61c4.04,5.97,7.26,12.37,8.98,19.42
		c0.59,2.42-0.37,3.25-2.85,2.58c-1.76-0.48-3.53-0.35-5.26-0.16c-8.88,0.99-17.62,2.66-25.89,6.17
		c-6.95,2.94-13.62,6.34-18.34,12.56c-3.52,1.57-5.27,4.98-4.21,8.22c-1.23,1.55-2.7-1.1-4.2,0.4c-2.39,2.38-5.28,4.25-7.72,6.59
		c-6.47,6.19-10.81,13.86-14.28,21.97c-1.14,2.66-2.36,5.61-0.98,8.87c2.1,4.92,5.76,7.1,10.94,7.13c2.42,2.6,1.04,5.21,0.02,7.82
		c-0.03,0.09,0.04,0.21,0.03,0.31c-0.34,2.37-1.42,3.39-4.09,3.22c-8.29-0.51-15.45,2.51-21.55,7.96
		c-4.71,4.21-6.12,12.17-0.61,16.56c1.98,1.58,0.87,2.58-0.52,3.53c-3.26,2.22-5.18,5.46-5.72,9.16c-0.75,5.11,1.6,8.98,6.08,11.59
		c1.28,0.75,3.03,1.03,1.98,3.57c-2.6,6.33-0.67,11.64,5.27,15.18c7.77,4.63,15.56,4.16,23.25-0.29c-0.01,4.1-0.03,8.25,1.37,12.15
		c2.03,5.65,4.44,11.11,11.33,12.39c0.59,0.11,0.37,0.64,0.49,0.99C69.15,683.32,69.32,686.05,71.38,688.6z M300.94,671.51
		c-0.23,0.02-0.46,0.05-0.69,0.07c0.09,0.13,0.18,0.26,0.27,0.39c-0.24,3.42-0.26,6.86-0.75,10.24
		c-1.56,10.55-6.12,19.99-11.16,29.24c-14.12,25.89-21.54,53.28-19.24,83.04c1.27,16.54,5.24,32.29,12.04,47.33
		c9.09,20.14,22.88,36.74,39.32,51.28c1.25,1.11,3.13,2.42,2.67,3.85c-0.51,1.6-2.84,1.13-4.44,1.19
		c-17.89,0.64-35.78,1.2-53.67,1.89c-7.19,0.28-14.13,1.83-20.71,4.86c-18,8.3-27.67,22.59-29.99,42.01
		c-0.98,8.18,5.37,14.99,13.71,14.96c19.89-0.07,39.78-0.23,59.67-0.35c1.86-0.01,4.38,0.8,5.41-0.11c1.39-1.24-0.22-3.67-0.13-5.62
		c0.04-0.94-0.04-1.88,0.02-2.81c0.71-10.88,4.06-20.8,10.65-29.58c11.07-14.74,26.04-22.58,44.11-24.74
		c11.81-1.41,23.7-1.15,35.56-1.18c0.99,0,2,0.18,3.06-0.39c-4.79-4.71-8.36-10.19-12.22-15.42c-7.77-10.52-13.65-22.04-18.38-34.25
		c-4.54-11.71-7.81-23.74-9.66-36.09c-2.39-15.89-2.68-31.83-0.31-47.84c1.9-12.84,4.98-25.33,9.77-37.35
		c8.57-21.45,20.75-40.49,37.3-56.84c13.22-13.06,28.18-23.36,44.9-31.16c17.76-8.28,36.52-12.42,56.13-12.61
		c11.77-0.11,23.39,1.05,34.74,4.32c4.25,1.22,6.67,4.94,5.8,8.49c-1.18,4.8-3.86,6.56-9,5.57c-5.9-1.14-11.83-2.11-17.82-2.53
		c-22.5-1.57-44.03,1.95-64.6,11.62c-30.09,14.14-51.88,36.5-67.03,65.79c-9.04,17.48-14.05,36.11-15.4,55.61
		c-1.36,19.67,0.46,39.13,6.74,57.99c7.12,21.36,17.79,40.64,33.13,57.27c5.93,6.44,12.73,11.94,18.84,18.17
		c0.8,0.82,1.91,1.7,1.47,2.9c-0.51,1.39-2.01,1.16-3.24,1.18c-10.83,0.18-21.66,0.33-32.48,0.52c-12.38,0.22-24.81-0.23-37.1,1.5
		c-18.41,2.59-30.94,12.8-37.65,30.14c-1.59,4.1-2.64,8.4-2.16,12.76c0.74,6.64,5.93,10.65,13.56,10.5
		c28.73-0.55,57.46-1.23,86.18-1.88c54.75-1.24,109.5-2.64,164.26-3.67c24.32-0.46,46.07-7.76,65.37-22.46
		c12.62-9.61,22.5-21.57,30.04-35.48c0.88-1.63,1.72-2.79,3.9-2.83c15.77-0.28,31.14-3.35,46.26-7.5
		c25.87-7.09,49.89-18.35,72.17-33.3c6.73-4.52,13.3-9.24,18.86-15.19c2.58-2.76,2.12-4.51-1.24-6.25c-1.86-0.96-3.9-1.34-5.9-1.83
		c-0.46-0.11-1.09,0.15-1.18-0.64c-0.08-0.71,0.53-0.82,0.96-1.02c2.79-1.3,5.65-2.44,8.37-3.86c13.23-6.94,24.77-16.07,35.1-26.83
		c7.28-7.58,13.91-15.66,19.27-24.68c3.17-5.33,1.68-7.89-4.47-8.63c-2.78-0.34-5.58-0.54-8.36-0.92c-0.73-0.1-1.85,0.18-2.08-0.91
		c-0.2-0.96,0.73-1.42,1.34-1.94c2.12-1.81,4.39-3.46,6.39-5.4c16.16-15.67,28.53-33.96,37.41-54.63c1.54-3.58,3.11-7.18,3.8-11.05
		c0.65-3.66-0.74-5.25-4.46-5.32c-3.14-0.06-6.21,0.45-9.27,1.07c-1,0.2-2.21,0.9-2.89-0.09c-0.68-0.99,0.46-1.87,0.99-2.68
		c5.08-7.79,9.2-16.09,12.77-24.65c6.54-15.68,11.62-31.79,13.5-48.73c0.49-4.41,1.4-8.88,0.5-13.35c-0.74-3.73-3.01-4.87-6.55-3.67
		c-3.06,1.05-5.68,2.88-8.47,4.42c-0.98,0.54-1.99,1.6-3.09,0.79c-1.15-0.84,0.01-1.92,0.31-2.81c3.85-11.51,6.51-23.28,7.49-35.38
		c0.98-12.15,1.5-24.32,0-36.46c-0.89-7.17-1.28-14.43-3.67-21.35c-1.74-5.04-4.19-5.71-8.12-2.12c-1.61,1.47-3.07,3.11-4.63,4.63
		c-0.65,0.63-1.36,1.62-2.34,1.25c-1.14-0.43-0.5-1.61-0.5-2.47c0.06-11.45-0.74-22.86-2.86-34.1c-2.55-13.6-6.68-26.75-12.19-39.46
		c-1.91-4.41-3.68-8.89-6.15-13.03c-2.56-4.29-4.2-4.45-7.46-0.65c-1.62,1.88-2.91,4.04-4.45,5.99c-0.47,0.6-0.86,1.57-1.85,1.44
		c-1.16-0.15-0.87-1.32-1.06-2.01c-4.63-16.96-11.25-33.14-19.02-48.88c-6.94-14.06-13.94-28.1-16.64-43.79
		c-1.87-10.9-1.8-21.73,2.05-32.16c8.52-23.04,28.96-36.89,53.11-37.38c26.18-0.53,49.45,8.6,71.04,22.67
		c5.24,3.41,6.93,3.41,11.83-0.48c6.84-5.41,12.14-12.09,16.77-19.4c8.78-13.86,13.93-29.01,15.39-45.27
		c1.63-18.18-0.53-35.93-7.32-53.06c-4.52-11.4-9.91-22.22-17.94-31.6c-2.93-3.42-5.98-6.72-9.53-9.74
		c1.51-0.97,2.74-0.48,3.93-0.41c3.01,0.19,6.01,0.49,9.02,0.61c1.49,0.06,3.16,0.42,4.12-1.39c0.94-1.76,0.26-3.22-0.68-4.64
		c-3.86-5.8-8.2-11.26-12.97-16.29c-16.45-17.35-34.9-32.17-55.87-43.8c-15.83-8.78-32.41-15.77-49.85-20.52
		c-16.08-4.37-32.41-7.52-49.06-9.09c-20.22-1.91-40.27-1.03-60.3,2c-15.48,2.34-30.36,6.85-44.91,12.42
		c-12.13,4.64-23.55,10.77-34.01,18.57c-0.64,0.48-1.25,1.36-2.16,0.85c-0.93-0.51-0.34-1.49-0.36-2.27
		c-0.05-2.08,0.13-4.19-0.18-6.23c-0.51-3.4-2.75-4.35-5.58-2.48c-2.33,1.53-4.61,3.16-6.84,4.83
		c-17.95,13.48-33.33,29.43-45.87,48.08c-1.03,1.53-1.83,3.2-3.17,4.52c-0.44,0.43-0.78,1.08-1.5,0.91
		c-0.8-0.18-0.62-0.99-0.72-1.54c-0.47-2.75-0.81-5.53-1.36-8.27c-0.37-1.84-1.13-3.76-3.19-4.11c-1.82-0.32-2.95,1.33-3.95,2.57
		c-14.46,17.9-27.08,36.95-36.03,58.26c-6,14.28-11.12,28.83-13.48,44.22c-0.68,4.41-1.23,8.83-1.91,13.23
		c-0.15,0.99-0.04,2.44-0.97,2.79c-1.14,0.44-1.63-0.99-2.3-1.74c-0.9-1.01-1.7-2.11-2.68-3.04c-4.42-4.21-6.49-3.67-7.73,2.32
		c-4.61,22.19-4.86,44.61-2.8,67.06c1.78,19.37,6.02,38.28,11.92,56.82c6.52,20.5,15.82,39.75,26.26,58.49
		c0.66,1.18,1.52,2.13,2.76,2.83c5.13,2.89,10.27,5.76,15.29,8.84c15.62,9.59,30.65,20,44.43,32.14
		c19.37,17.06,36.43,36.19,51.21,57.37c15.15,21.71,27.66,44.82,37.29,69.49c9.29,23.8,16.54,48.15,20.73,73.42
		c2.72,16.4,4.74,32.84,5.25,49.44c0.64,20.8,0.46,41.59-3.09,62.19c-1.13,6.53-1.7,13.18-3.83,19.5c-1.26,3.74-4.43,5.73-7.8,5.09
		c-3.95-0.75-6.39-3.64-6.26-7.66c0.06-1.76,0.35-3.53,0.74-5.25c2.93-13.11,4-26.47,4.57-39.82c0.96-22.47-0.01-44.89-3.03-67.21
		c-2.11-15.57-5.19-30.94-9.22-46.1c-5.35-20.18-12.95-39.59-21.75-58.49c-10.64-22.86-24-44.1-39.84-63.68
		c-12.84-15.87-27.39-30.12-43.15-43.17c-21.66-17.94-46.03-31.3-71.23-43.35c-15.47-7.4-30.99-14.62-44.61-25.33
		c-17.97-14.13-31.49-31.56-40.24-52.67c-5.83-14.07-11.41-28.24-17.5-42.19c-7.26-16.61-16.74-31.82-29.91-44.5
		c-2.95-2.84-2.89-2.79-5.34,0.33c-3.35,4.26-6.93,8.34-11.5,11.33c-4.3,2.81-9.44,0.2-9.8-4.83c-0.19-2.67,1.87-4.07,3.39-5.69
		c7.6-8.15,14.32-16.97,18.69-27.25c7.7-18.12,9.09-36.91,4.36-56.02c-3.28-13.25-8.23-25.82-17.85-35.94
		c-7.92-8.33-11.35-8.83-20.96-2.54c-15.93,10.43-28.01,24.45-37.21,41.04c-7.41,13.38-11.57,27.84-14.18,42.8
		c-0.28,1.62-0.68,2.25-2.49,2.26c-18.14,0.14-35.88,2.95-53.28,8.03c-21.41,6.25-41.56,15.19-59.35,28.8
		c-23.81,18.21-41.12,41.67-54.36,68.36c-9.29,18.72-16.45,38.33-24.33,57.64c-4.26,10.44-3.74,20.54,2.95,29.93
		c3.67,5.16,7.81,9.73,14.77,10.09c1.13,0.06,1.58,0.95,2.16,1.61c7.34,8.37,16.45,14.22,26.71,18.22
		c14.39,5.6,29.49,7.36,44.81,7.65c9.15,0.17,18.33-0.14,27.4,1.28c11.22,1.76,19.4,7.93,22.87,18.72
		c4.31,13.39,2.34,26.64-3.57,39.28c-5.19,11.1-12.41,20.74-21.72,28.74c-1.6,1.37-1.47,2.23-0.15,3.6
		c9.63,9.95,15.47,21.64,15.89,35.68c0.05,1.67,0.55,1.62,1.78,1.23c15.73-5.07,30.3-12.45,43.17-22.83
		c13.37-10.79,23.02-24.54,30.29-40.03c1-2.13,1.88-4.36,3.19-6.29c1.7-2.49,4.07-4.16,7.35-3.5c3.01,0.6,5.22,2.96,5.52,5.91
		c0.17,1.65-0.18,3.27-0.74,4.83c-4.82,13.56-11.88,25.87-21.35,36.66c-14.8,16.86-33,28.75-54.05,36.54
		c-14.67,5.43-29.41,8.27-45.06,5.23c-9.13-1.77-18.41-1.82-27.58,0.12c-6.5,1.37-12.94,2.94-17.97,7.79
		c-1.88,1.81-3.79,3.89-2.77,6.44c0.98,2.44,3.79,2.43,6.23,2.49c5.72,0.15,11.45,0,17.16,0.55c1.31,0.13,2.33,0.5,2.5,1.8
		c0.17,1.32-0.98,1.64-2.01,1.91c-1.1,0.29-2.18,0.65-3.28,0.92c-7.3,1.75-14.6,3.55-21.32,6.98c-4.58,2.33-8.75,5.26-10.83,10.28
		c-1.33,3.22-1.06,6.31,1.34,8.95c1.69,1.86,3.6,3.59,6.43,2.77c5.27-1.53,10.57-2.83,16-3.66c1.74-0.27,4.3-1.82,4.99-0.29
		c0.94,2.07-1.91,3.08-3.43,4.09c-3.46,2.31-6.74,4.8-9.7,7.71c-4.4,4.32-3.82,7.28,0.85,11.41c2.21,1.95,5.07,3.17,7.99,4
		c10.67,3.03,20.94,0.74,31.14-2.33c6.11-1.84,12.12-4.03,18.3-5.56c8.25-2.04,16.52-0.35,24.77,0.64
		c18.46,2.23,36.81,5.26,55.42,6.24c16.41,0.87,32.67,0.33,48.66-3.5c29.04-6.94,52.79-22.35,71.68-45.43
		c5.77-7.05,11.14-14.34,15.37-22.43c1.46-2.79,3.62-4.36,6.92-4.15c3.43,0.22,5.35,2.22,6.66,5.18c1.39,3.15-0.4,5.63-1.72,8.07
		c-8.56,15.89-19.55,29.87-33.25,41.68c-12.85,11.07-27,20.02-42.83,26.22C349.84,671.09,325.62,673.02,300.94,671.51z
		 M218.87,200.22c0,1.35,0,2.71,0,4.06c0.01,4.6,0.06,4.62,4.36,2.84c12.48-5.16,25.42-8.6,38.7-10.95
		c7.07-1.25,14.15-2.29,21.33-2.49c2.17-0.06,3.46-0.82,4.04-3.25c3.07-12.77,3.89-25.48,1.08-38.49
		c-2.19-10.12-4.69-20.08-9.06-29.46c-3.05-6.56-6.91-7.93-13.23-4.58c-11.37,6.02-20.58,14.68-28.44,24.72
		C224.43,159.49,219.02,179.02,218.87,200.22z"/>
	<path class="st1" d="M300.94,671.51c24.67,1.51,48.9-0.41,72.17-9.52c15.82-6.19,29.97-15.14,42.83-26.22
		c13.71-11.81,24.69-25.78,33.25-41.68c1.32-2.44,3.11-4.93,1.72-8.07c-1.31-2.96-3.23-4.96-6.66-5.18
		c-3.3-0.21-5.46,1.35-6.92,4.15c-4.22,8.09-9.59,15.38-15.37,22.43c-18.9,23.08-42.65,38.48-71.68,45.43
		c-15.99,3.82-32.25,4.37-48.66,3.5c-18.62-0.99-36.97-4.02-55.42-6.24c-8.25-0.99-16.52-2.68-24.77-0.64
		c-6.18,1.53-12.2,3.72-18.3,5.56c-10.2,3.07-20.48,5.36-31.14,2.33c-2.92-0.83-5.78-2.05-7.99-4c-4.68-4.13-5.26-7.1-0.85-11.41
		c2.96-2.9,6.24-5.4,9.7-7.71c1.52-1.02,4.37-2.02,3.43-4.09c-0.69-1.52-3.25,0.03-4.99,0.29c-5.43,0.83-10.74,2.13-16,3.66
		c-2.83,0.82-4.74-0.91-6.43-2.77c-2.4-2.64-2.67-5.73-1.34-8.95c2.07-5.02,6.25-7.94,10.83-10.28c6.73-3.43,14.02-5.23,21.32-6.98
		c1.1-0.26,2.19-0.62,3.28-0.92c1.03-0.28,2.19-0.59,2.01-1.91c-0.17-1.3-1.19-1.68-2.5-1.8c-5.71-0.55-11.44-0.4-17.16-0.55
		c-2.44-0.06-5.25-0.05-6.23-2.49c-1.02-2.55,0.89-4.64,2.77-6.44c5.03-4.85,11.47-6.42,17.97-7.79c9.17-1.93,18.45-1.89,27.58-0.12
		c15.65,3.03,30.39,0.19,45.06-5.23c21.06-7.79,39.25-19.68,54.05-36.54c9.47-10.79,16.53-23.1,21.35-36.66
		c0.55-1.56,0.91-3.18,0.74-4.83c-0.3-2.95-2.51-5.31-5.52-5.91c-3.28-0.66-5.65,1.01-7.35,3.5c-1.31,1.93-2.19,4.16-3.19,6.29
		c-7.27,15.48-16.92,29.23-30.29,40.03c-12.87,10.39-27.43,17.76-43.17,22.83c-1.23,0.4-1.73,0.45-1.78-1.23
		c-0.43-14.04-6.26-25.72-15.89-35.68c-1.32-1.36-1.44-2.23,0.15-3.6c9.31-8,16.53-17.63,21.72-28.74
		c5.91-12.63,7.88-25.88,3.57-39.28c-3.47-10.79-11.65-16.97-22.87-18.72c-9.07-1.42-18.25-1.11-27.4-1.28
		c-15.32-0.29-30.43-2.05-44.81-7.65c-10.26-3.99-19.37-9.85-26.71-18.22c-0.59-0.67-1.03-1.56-2.16-1.61
		c-6.96-0.36-11.1-4.93-14.77-10.09c-6.69-9.4-7.21-19.49-2.95-29.93c7.88-19.31,15.04-38.92,24.33-57.64
		c13.25-26.69,30.56-50.15,54.36-68.36c17.78-13.6,37.94-22.55,59.35-28.8c17.4-5.08,35.14-7.89,53.28-8.03
		c1.8-0.01,2.2-0.64,2.49-2.26c2.61-14.96,6.76-29.42,14.18-42.8c9.2-16.59,21.28-30.61,37.21-41.04
		c9.61-6.29,13.04-5.79,20.96,2.54c9.62,10.12,14.57,22.68,17.85,35.94c4.73,19.1,3.34,37.89-4.36,56.02
		c-4.37,10.28-11.08,19.1-18.69,27.25c-1.52,1.62-3.58,3.02-3.39,5.69c0.36,5.04,5.5,7.64,9.8,4.83c4.57-2.99,8.15-7.07,11.5-11.33
		c2.46-3.12,2.39-3.17,5.34-0.33c13.17,12.68,22.65,27.89,29.91,44.5c6.1,13.95,11.67,28.12,17.5,42.19
		c8.75,21.12,22.26,38.54,40.24,52.67c13.62,10.71,29.14,17.92,44.61,25.33c25.19,12.06,49.57,25.41,71.23,43.35
		c15.76,13.06,30.31,27.31,43.15,43.17c15.83,19.57,29.2,40.82,39.84,63.68c8.8,18.91,16.39,38.32,21.75,58.49
		c4.02,15.16,7.11,30.53,9.22,46.1c3.02,22.32,3.99,44.74,3.03,67.21c-0.57,13.35-1.64,26.71-4.57,39.82
		c-0.38,1.72-0.68,3.49-0.74,5.25c-0.13,4.02,2.31,6.91,6.26,7.66c3.37,0.64,6.54-1.35,7.8-5.09c2.13-6.33,2.71-12.97,3.83-19.5
		c3.56-20.6,3.73-41.4,3.09-62.19c-0.51-16.59-2.52-33.04-5.25-49.44c-4.19-25.27-11.45-49.62-20.73-73.42
		c-9.62-24.66-22.14-47.77-37.29-69.49c-14.78-21.18-31.84-40.31-51.21-57.37C597.25,433,582.21,422.59,566.6,413
		c-5.01-3.08-10.16-5.95-15.29-8.84c-1.24-0.7-2.1-1.65-2.76-2.83c-10.45-18.73-19.74-37.99-26.26-58.49
		c-5.9-18.53-10.14-37.45-11.92-56.82c-2.06-22.45-1.8-44.87,2.8-67.06c1.24-5.99,3.31-6.54,7.73-2.32
		c0.97,0.93,1.78,2.03,2.68,3.04c0.67,0.75,1.16,2.18,2.3,1.74c0.93-0.36,0.82-1.81,0.97-2.79c0.68-4.4,1.24-8.83,1.91-13.23
		c2.36-15.39,7.48-29.94,13.48-44.22c8.95-21.31,21.57-40.36,36.03-58.26c1-1.24,2.13-2.89,3.95-2.57c2.06,0.36,2.82,2.27,3.19,4.11
		c0.55,2.74,0.88,5.51,1.36,8.27c0.1,0.55-0.08,1.36,0.72,1.54c0.72,0.17,1.06-0.48,1.5-0.91c1.33-1.32,2.14-2.99,3.17-4.52
		c12.54-18.64,27.91-34.6,45.87-48.08c2.23-1.68,4.51-3.3,6.84-4.83c2.83-1.87,5.07-0.92,5.58,2.48c0.31,2.04,0.12,4.15,0.18,6.23
		c0.02,0.78-0.57,1.76,0.36,2.27c0.91,0.5,1.52-0.38,2.16-0.85c10.46-7.8,21.88-13.93,34.01-18.57
		c14.55-5.56,29.42-10.07,44.91-12.42c20.04-3.03,40.08-3.91,60.3-2c16.65,1.57,32.98,4.72,49.06,9.09
		c17.44,4.74,34.02,11.73,49.85,20.52c20.97,11.63,39.42,26.45,55.87,43.8c4.77,5.03,9.11,10.49,12.97,16.29
		c0.94,1.42,1.61,2.89,0.68,4.64c-0.96,1.81-2.63,1.45-4.12,1.39c-3.01-0.12-6.01-0.43-9.02-0.61c-1.19-0.07-2.42-0.56-3.93,0.41
		c3.56,3.02,6.61,6.32,9.53,9.74c8.02,9.37,13.42,20.19,17.94,31.6c6.79,17.13,8.95,34.88,7.32,53.06
		c-1.46,16.26-6.61,31.41-15.39,45.27c-4.63,7.31-9.93,13.99-16.77,19.4c-4.91,3.88-6.6,3.89-11.83,0.48
		c-21.58-14.08-44.86-23.2-71.04-22.67c-24.16,0.48-44.6,14.34-53.11,37.38c-3.86,10.44-3.92,21.26-2.05,32.16
		c2.69,15.69,9.7,29.73,16.64,43.79c7.77,15.74,14.39,31.92,19.02,48.88c0.19,0.69-0.1,1.86,1.06,2.01
		c0.99,0.13,1.39-0.84,1.85-1.44c1.54-1.96,2.83-4.11,4.45-5.99c3.27-3.8,4.9-3.64,7.46,0.65c2.47,4.14,4.24,8.62,6.15,13.03
		c5.51,12.71,9.64,25.87,12.19,39.46c2.11,11.25,2.92,22.65,2.86,34.1c0,0.86-0.64,2.04,0.5,2.47c0.97,0.37,1.68-0.62,2.34-1.25
		c1.57-1.52,3.02-3.16,4.63-4.63c3.93-3.59,6.38-2.92,8.12,2.12c2.39,6.92,2.78,14.18,3.67,21.35c1.5,12.14,0.99,24.32,0,36.46
		c-0.98,12.1-3.64,23.87-7.49,35.38c-0.3,0.89-1.45,1.97-0.31,2.81c1.1,0.81,2.1-0.25,3.09-0.79c2.79-1.54,5.41-3.37,8.47-4.42
		c3.53-1.21,5.8-0.06,6.55,3.67c0.89,4.47-0.01,8.94-0.5,13.35c-1.89,16.95-6.96,33.06-13.5,48.73
		c-3.57,8.57-7.69,16.86-12.77,24.65c-0.53,0.81-1.67,1.7-0.99,2.68c0.68,0.99,1.89,0.3,2.89,0.09c3.06-0.63,6.13-1.13,9.27-1.07
		c3.72,0.07,5.11,1.66,4.46,5.32c-0.69,3.87-2.26,7.47-3.8,11.05c-8.87,20.66-21.24,38.95-37.41,54.63c-2,1.94-4.27,3.58-6.39,5.4
		c-0.61,0.52-1.54,0.98-1.34,1.94c0.23,1.09,1.35,0.81,2.08,0.91c2.78,0.37,5.58,0.58,8.36,0.92c6.16,0.74,7.64,3.31,4.47,8.63
		c-5.37,9.02-11.99,17.1-19.27,24.68c-10.34,10.76-21.88,19.9-35.1,26.83c-2.72,1.43-5.59,2.56-8.37,3.86
		c-0.43,0.2-1.04,0.31-0.96,1.02c0.09,0.78,0.72,0.52,1.18,0.64c2,0.48,4.04,0.87,5.9,1.83c3.37,1.74,3.82,3.49,1.24,6.25
		c-5.56,5.95-12.13,10.68-18.86,15.19c-22.28,14.95-46.3,26.21-72.17,33.3c-15.12,4.14-30.49,7.22-46.26,7.5
		c-2.18,0.04-3.01,1.2-3.9,2.83c-7.54,13.91-17.42,25.88-30.04,35.48c-19.31,14.69-41.05,22-65.37,22.46
		c-54.76,1.03-109.51,2.43-164.26,3.67c-28.73,0.65-57.45,1.33-86.18,1.88c-7.63,0.15-12.82-3.87-13.56-10.5
		c-0.49-4.36,0.57-8.66,2.16-12.76c6.71-17.34,19.24-27.55,37.65-30.14c12.29-1.73,24.72-1.27,37.1-1.5
		c10.83-0.2,21.66-0.35,32.48-0.52c1.22-0.02,2.73,0.21,3.24-1.18c0.44-1.2-0.67-2.08-1.47-2.9c-6.11-6.23-12.9-11.73-18.84-18.17
		c-15.34-16.64-26.02-35.91-33.13-57.27c-6.28-18.86-8.1-38.31-6.74-57.99c1.35-19.5,6.35-38.13,15.4-55.61
		c15.15-29.29,36.94-51.65,67.03-65.79c20.57-9.67,42.11-13.19,64.6-11.62c5.98,0.42,11.91,1.39,17.82,2.53
		c5.14,0.99,7.83-0.77,9-5.57c0.87-3.55-1.55-7.27-5.8-8.49c-11.34-3.27-22.97-4.43-34.74-4.32c-19.61,0.19-38.38,4.33-56.13,12.61
		c-16.72,7.8-31.68,18.11-44.9,31.16c-16.55,16.35-28.73,35.38-37.3,56.84c-4.8,12.02-7.87,24.51-9.77,37.35
		c-2.37,16.01-2.08,31.95,0.31,47.84c1.86,12.35,5.12,24.38,9.66,36.09c4.73,12.21,10.62,23.73,18.38,34.25
		c3.86,5.23,7.43,10.71,12.22,15.42c-1.06,0.57-2.07,0.39-3.06,0.39c-11.87,0.03-23.76-0.23-35.56,1.18
		c-18.07,2.16-33.04,10-44.11,24.74c-6.59,8.78-9.93,18.7-10.65,29.58c-0.06,0.93,0.02,1.88-0.02,2.81
		c-0.09,1.95,1.52,4.38,0.13,5.62c-1.03,0.91-3.55,0.1-5.41,0.11c-19.89,0.12-39.78,0.28-59.67,0.35
		c-8.35,0.03-14.69-6.78-13.71-14.96c2.33-19.42,11.99-33.72,29.99-42.01c6.58-3.03,13.52-4.58,20.71-4.86
		c17.89-0.69,35.78-1.26,53.67-1.89c1.6-0.06,3.93,0.41,4.44-1.19c0.46-1.43-1.42-2.74-2.67-3.85
		c-16.44-14.54-30.23-31.14-39.32-51.28c-6.79-15.04-10.76-30.79-12.04-47.33c-2.29-29.77,5.12-57.15,19.24-83.04
		c5.04-9.24,9.61-18.68,11.16-29.24c0.5-3.38,0.52-6.83,0.75-10.24C300.66,671.82,300.8,671.67,300.94,671.51z M229.27,295.56
		c-13.14-0.05-24.37,10.98-24.41,23.99c-0.04,13.06,10.6,23.92,23.58,24.06c13.06,0.15,24.24-10.79,24.28-23.75
		C252.76,306.24,242.5,295.61,229.27,295.56z"/>
	<path class="st1" d="M171.36,728.19c-0.66,3.37-2.85,5.61-5.56,7.46c-9.5-2.91-17.84-7.72-24.52-15.14c-1.26-1.39-1.84-1-2.85,0.11
		c-6.8,7.54-15.15,12.74-24.66,16.15c-3.28-1.98-5.15-5.07-6.64-8.45c8.12-2.6,14.71-7.59,21.3-13.24
		c-9.72-4.72-17.92-10.42-23.94-18.84c-0.74-1.04-1.47-1.07-2.64-0.62c-3.67,1.4-7.51,1.79-11.34,0.91
		c-6.81-1.55-13.53-3.4-19.12-7.93c-2.07-2.55-2.23-5.28-0.78-8.16c2.91,0.35,5.77,1.08,8.43,2.22c8.35,3.56,16.39,3.23,24.24-1.34
		c6.72-3.91,12.87-8.52,18.04-14.79c-8.26-2.48-15.05-6.69-21.24-12.11c-4.18-3.66-7.55-8.02-11.38-11.96
		c-0.87-0.9-1.4-1.44-2.84-0.83c-7.36,3.16-15.03,4.78-23.09,4.02c-0.8-0.08-1.87-0.25-1.97,0.93c-0.25,3.15-2.32,5.53-3.37,8.32
		c-7.7,4.45-15.48,4.92-23.25,0.29c-5.94-3.54-7.87-8.85-5.27-15.18c1.05-2.54-0.7-2.83-1.98-3.57c-4.48-2.61-6.83-6.48-6.08-11.59
		c0.55-3.71,2.46-6.94,5.72-9.16c1.39-0.95,2.5-1.95,0.52-3.53c-5.52-4.39-4.11-12.35,0.61-16.56c6.1-5.45,13.26-8.47,21.55-7.96
		c2.66,0.16,3.74-0.86,4.09-3.22c0.01-0.1-0.06-0.22-0.03-0.31c1.03-2.61,2.4-5.22-0.02-7.82c18.05-6.34,31.44-18.82,44.14-33.4
		c-11.05-0.57-20.88-2.84-27.89-11.56c-1.06-3.25,0.69-6.66,4.21-8.22c0.95,0.61,1.9,1.23,2.85,1.84c8.12,5.16,17.03,7.36,26.5,6
		c3.8-0.55,5.53,0.65,7.43,3.62c4.69,7.32,10.93,13.03,19.13,16.34c3.02,1.22,6.01,1.29,9.1,0.1c9.69-3.73,17.03-10.24,22.48-18.95
		c1.02-1.64,2.06-2.36,3.99-1.99c11.69,2.26,21.96-0.97,31.19-8.17c2.68,1.67,3.93,4.41,5.27,7.07c-0.63,0.92-1.13,1.98-1.92,2.74
		c-4.59,4.4-9.98,7.41-16.17,9c-1.82,0.47-3.81,0.5-5.57,1.7c5.63,5.44,11.57,10.11,18.1,14.01c5.98,3.57,12.01,7.08,17.22,11.77
		c-0.35,0.79-1.02,0.5-1.59,0.46c-6.67-0.47-13.38-0.28-20.01-1.25c-0.58-0.42-1.12-0.9-1.74-1.27
		c-7.27-4.33-14.06-9.28-19.89-15.46c-1.34-1.42-2.56-2.95-3.84-4.42c-1.54,1.34-3.11,2.67-4.63,4.04
		c-5.44,4.91-11.49,8.83-18.79,10.95c1.33,1.9,2.97,2.85,4.49,3.86c4.82,3.19,9.21,7.13,14.92,8.83c0.43,0.79-0.16,1.06-0.69,1.39
		c-3.02,1.87-6.06,3.72-8.66,6.18c-0.49,0.46-1.1,0.5-1.73,0.34c-6.22-4.18-12-8.9-17.37-14.15c-3.25-3.18-3.43-3.08-6.61,0.13
		c-8.65,8.72-18.74,15.08-30.54,18.6c-1.98,0.59-2.1,1.25-0.63,2.62c6.12,5.72,12.91,10.32,20.55,13.91
		c9.43,4.43,18.38,4.54,27.29-0.99c0.72,0.96,1.85,1.81,0.08,2.96c-4.37,2.85-6.88,7.19-8.94,11.8c-0.31,0.69-0.42,1.32-1.23,1.52
		c-4.41,0.84-8.69-0.12-12.95-1.01c-0.96-0.2-1.53-0.51-2.36,0.5c-5.42,6.53-11.7,12.1-19.19,16.17c-1.94,1.05-1.89,1.95-0.47,3.48
		c5.18,5.61,10.85,10.62,17.22,14.83c9.13,6.04,18.29,6.98,27.52,0.21c0.67-0.49,1.42-0.87,2.13-1.29c1.95,1.26,1.53,3.79,2.91,5.41
		c1.13,1.33,1.93,2.93,2.87,4.41c-1.32,2.88,0.28,4.7,2.17,6.6c5.47,5.48,11.69,9.95,18.42,13.71c6.75,3.77,13.85,4.82,21.31,2.47
		c3.75-1.18,7.46-2.5,11.19-3.75c1.63,2.96,1.55,5.89-0.2,8.77c-8.31,5.78-17.35,9.12-27.57,7.39c-2.44-0.41-3.72,0.03-5.12,1.85
		c-5.08,6.62-11.34,11.84-18.86,15.5c-1.7,0.83-1.82,1.4-0.36,2.78C157.98,721.48,164.65,724.85,171.36,728.19z M51.94,606.97
		c2.39,1.5,4.45,3.03,6.1,5.05c4.36,5.33,4.91,12.6,1.31,17.66c-1.98,2.78-1.71,3.4,1.81,3.99c0.61,0.1,1.25,0.08,1.87,0.1
		c18.94,0.71,32.59-9.63,45.85-21.66c-10.4-4.33-18.66-10.92-25.44-19.17c-2.64-3.2-5.97-4.38-9.29-6.2
		c-4.47-2.45-7.31-0.92-9.95,2.53c-0.98,1.28-3.06,2.01-2.92,3.82C61.85,600.07,57.48,603.62,51.94,606.97z M139.47,707.1
		c1.32-0.28,2.7-0.39,3.94-0.87c8.14-3.15,14.67-8.53,20.5-14.87c1.27-1.38,0.05-1.61-0.84-2.18c-8.24-5.2-15.6-11.4-21.9-18.86
		c-2.71-3.21-2.73-3.2-5.98-0.46c-7.47,6.27-13.65,14.07-22.37,18.85c-1.17,0.64-0.82,1.14-0.08,1.85
		c6.37,6.05,13.16,11.51,21.3,15.05C135.76,706.36,137.49,707.11,139.47,707.1z M106.73,549.16c-7.21,10.13-15.65,18.75-26.35,24.9
		c-1.9,1.09-1.07,1.5,0.07,2.18c2.53,1.51,5.16,1.84,8.06,1.12c12.18-3.03,21.73-10.35,31.02-18.67
		C114.39,556.55,110.74,552.7,106.73,549.16z"/>
	<path class="st1" d="M218.87,200.22c0.16-21.19,5.56-40.72,18.78-57.61c7.86-10.04,17.07-18.7,28.44-24.72
		c6.32-3.35,10.18-1.97,13.23,4.58c4.37,9.39,6.87,19.34,9.06,29.46c2.82,13.01,2,25.72-1.08,38.49c-0.59,2.44-1.88,3.19-4.04,3.25
		c-7.18,0.2-14.26,1.23-21.33,2.49c-13.28,2.36-26.23,5.8-38.7,10.95c-4.31,1.78-4.35,1.76-4.36-2.84
		C218.86,202.92,218.87,201.57,218.87,200.22z"/>
	<path class="st2" d="M196.42,521.9c-9.22,7.2-19.5,10.43-31.19,8.17c-1.93-0.37-2.97,0.34-3.99,1.99
		c-5.44,8.71-12.78,15.22-22.48,18.95c-3.09,1.19-6.08,1.12-9.1-0.1c-8.2-3.31-14.44-9.02-19.13-16.34
		c-1.9-2.97-3.63-4.17-7.43-3.62c-9.47,1.36-18.38-0.84-26.5-6c-0.96-0.61-1.9-1.23-2.85-1.84c4.72-6.22,11.39-9.61,18.34-12.56
		c8.28-3.5,17.02-5.17,25.89-6.17c1.73-0.19,3.49-0.31,5.26,0.16c2.49,0.67,3.44-0.16,2.85-2.58c-1.72-7.05-4.94-13.44-8.98-19.42
		c-1.78-2.62-3.79-5.09-5.72-7.61c-1.97-2.59-1.45-5.09,0.58-7.22c4.53-4.75,6.96-5.4,13.61-3.03c5.33,1.9,9.3,5.85,12.15,11.09
		c4.48,8.24,7.83,16.8,9.64,25.99c0.22,1.13,0.54,1.85,2.13,1.99c8.72,0.77,17.46,1.62,25.78,4.66
		C183.31,511.36,191.04,514.79,196.42,521.9z"/>
	<path class="st2" d="M57.41,654.91c1.06-2.8,3.12-5.18,3.37-8.32c0.09-1.18,1.17-1,1.97-0.93c8.07,0.76,15.73-0.86,23.09-4.02
		c1.43-0.62,1.96-0.07,2.84,0.83c3.84,3.94,7.2,8.3,11.38,11.96c6.19,5.42,12.97,9.63,21.24,12.11
		c-5.17,6.27-11.32,10.88-18.04,14.79c-7.85,4.56-15.9,4.9-24.24,1.34c-2.66-1.14-5.52-1.86-8.43-2.22
		c-0.12-0.35,0.1-0.88-0.49-0.99c-6.88-1.28-9.3-6.74-11.33-12.39C57.39,663.16,57.4,659.01,57.41,654.91z"/>
	<path class="st2" d="M69.53,531.33c7.01,8.72,16.84,10.99,27.89,11.56c-12.7,14.58-26.08,27.06-44.14,33.4
		c-5.17-0.03-8.84-2.21-10.94-7.13c-1.39-3.26-0.17-6.21,0.98-8.87c3.48-8.11,7.82-15.78,14.28-21.97c2.44-2.34,5.33-4.2,7.72-6.59
		C66.83,530.22,68.3,532.88,69.53,531.33z"/>
	<path class="st2" d="M143.88,601.93c-8.91,5.52-17.86,5.41-27.29,0.99c-7.64-3.58-14.43-8.18-20.55-13.91
		c-1.46-1.37-1.34-2.03,0.63-2.62c11.8-3.53,21.89-9.88,30.54-18.6c3.18-3.21,3.36-3.32,6.61-0.13c5.37,5.26,11.14,9.97,17.37,14.15
		c-2.09,2.65-4.16,5.31-5.83,8.25C143.24,593.82,143.93,597.93,143.88,601.93z"/>
	<path class="st2" d="M145.69,651.1c-0.71,0.43-1.46,0.81-2.13,1.29c-9.23,6.76-18.39,5.82-27.52-0.21
		c-6.37-4.21-12.04-9.23-17.22-14.83c-1.41-1.53-1.46-2.42,0.47-3.48c7.49-4.07,13.77-9.63,19.19-16.17c0.84-1.01,1.41-0.7,2.36-0.5
		c4.27,0.89,8.54,1.86,12.95,1.01c-0.85,6.58-1.21,13.01,1.82,19.34c2.1,4.4,5.33,7.63,8.84,10.69
		C145.48,649.13,145.77,649.93,145.69,651.1z"/>
	<path class="st2" d="M71.38,688.6c5.59,4.53,12.31,6.38,19.12,7.93c3.83,0.87,7.68,0.49,11.34-0.91c1.17-0.45,1.9-0.41,2.64,0.62
		c6.03,8.42,14.22,14.13,23.94,18.84c-6.59,5.65-13.17,10.63-21.3,13.24c-8.66,1.04-12.64-4.94-16.55-11.04
		c-0.27-0.43-0.49-0.9-0.69-1.37c-1.58-3.58-3.02-6.39-7.78-7.72c-4.93-1.38-7.81-6.63-9.69-11.69
		C71.48,693.96,70.42,691.41,71.38,688.6z"/>
	<path class="st2" d="M171.36,728.19c-6.7-3.34-13.38-6.71-18.9-11.96c-1.45-1.38-1.34-1.95,0.36-2.78
		c7.52-3.66,13.78-8.88,18.86-15.5c1.39-1.82,2.68-2.26,5.12-1.85c10.23,1.73,19.27-1.61,27.57-7.39c0.9,1.11,0.53,2.24,0.26,3.49
		c-1.69,7.63-5.13,13.86-13.09,16.38c-1.51,0.48-1.71,1.43-2.12,2.6c-1.66,4.75-3.55,9.34-7.43,12.89
		C178.91,726.87,175.73,728.95,171.36,728.19z"/>
	<path class="st2" d="M113.77,736.78c9.51-3.41,17.86-8.61,24.66-16.15c1-1.11,1.59-1.5,2.85-0.11
		c6.69,7.42,15.03,12.23,24.52,15.14c-4.25,5.8-9.8,10.07-15.96,13.64c-6.13,3.54-12.25,4.75-19.01,1.23
		C124.16,747.06,118.58,742.45,113.77,736.78z"/>
	<path class="st2" d="M213.36,568.17c-5.22-4.69-11.24-8.19-17.22-11.77c-6.53-3.9-12.47-8.56-18.1-14.01
		c1.76-1.19,3.75-1.23,5.57-1.7c6.19-1.59,11.57-4.6,16.17-9c0.79-0.76,1.29-1.82,1.92-2.74c5.3,4.07,10.05,8.71,13.81,14.24
		c4.06,5.97,7.1,12.46,7.73,19.74c0.47,5.37-1.68,7.01-6.85,5.58C215.35,568.25,214.37,568.29,213.36,568.17z"/>
	<path class="st2" d="M162.27,573.92c-5.71-1.69-10.1-5.64-14.92-8.83c-1.52-1.01-3.17-1.95-4.49-3.86
		c7.3-2.12,13.35-6.04,18.79-10.95c1.52-1.37,3.08-2.69,4.63-4.04c1.28,1.48,2.5,3.01,3.84,4.42c5.83,6.17,12.62,11.13,19.89,15.46
		c0.61,0.37,1.16,0.84,1.74,1.27C181.49,567.6,171.69,569.91,162.27,573.92z"/>
	<path class="st2" d="M204.57,679.95c-3.73,1.26-7.44,2.57-11.19,3.75c-7.46,2.35-14.57,1.3-21.31-2.47
		c-6.73-3.76-12.95-8.23-18.42-13.71c-1.9-1.9-3.5-3.73-2.17-6.6c4.93,6.55,11.84,10.05,19.6,11.4c12.53,2.17,24.81,0.61,36.65-4.13
		c2.65-1.06,5.3-2.13,7.98-3.2C215.77,670.74,210.95,677.19,204.57,679.95z"/>
	<path class="st1" d="M300.52,671.98c-0.09-0.13-0.18-0.26-0.27-0.39c0.23-0.02,0.46-0.05,0.69-0.08
		C300.8,671.67,300.66,671.82,300.52,671.98z"/>
	<path class="st0" d="M229.27,295.56c13.23,0.05,23.49,10.69,23.45,24.31c-0.04,12.96-11.22,23.89-24.28,23.75
		c-12.98-0.15-23.62-11.01-23.58-24.06C204.9,306.54,216.13,295.5,229.27,295.56z"/>
	<path class="st2" d="M51.94,606.97c5.54-3.35,9.91-6.9,9.34-13.88c-0.15-1.8,1.93-2.53,2.92-3.82c2.64-3.45,5.48-4.98,9.95-2.53
		c3.31,1.82,6.65,2.99,9.29,6.2c6.78,8.25,15.05,14.84,25.44,19.17c-13.26,12.04-26.91,22.38-45.85,21.66
		c-0.62-0.02-1.26,0-1.87-0.1c-3.52-0.59-3.79-1.21-1.81-3.99c3.6-5.06,3.05-12.33-1.31-17.66C56.39,610,54.33,608.47,51.94,606.97z
		"/>
	<path class="st2" d="M139.47,707.1c-1.98,0-3.72-0.75-5.43-1.49c-8.14-3.54-14.93-9-21.3-15.05c-0.74-0.7-1.1-1.21,0.08-1.85
		c8.72-4.78,14.9-12.58,22.37-18.85c3.26-2.73,3.27-2.75,5.98,0.46c6.29,7.46,13.66,13.67,21.9,18.86c0.9,0.57,2.11,0.8,0.84,2.18
		c-5.83,6.35-12.36,11.73-20.5,14.87C142.17,706.71,140.79,706.82,139.47,707.1z"/>
	<path class="st2" d="M106.73,549.16c4.01,3.53,7.66,7.38,12.79,9.53c-9.29,8.31-18.84,15.64-31.02,18.67
		c-2.9,0.72-5.53,0.39-8.06-1.12c-1.14-0.68-1.96-1.09-0.07-2.18C91.08,567.91,99.52,559.29,106.73,549.16z"/>
</g>
</svg>
